<svg width="108" height="108" viewBox="0 0 108 108" fill="none" xmlns="http://www.w3.org/2000/svg">
<path fill-rule="evenodd" clip-rule="evenodd" d="M96.3706 61.8514C94.6598 60.1406 91.8342 60.1406 90.1233 61.8514L79.7978 72.177C79.4808 75.9227 76.343 78.8608 72.5148 78.8608H57.202V75.9679H72.5148C74.9498 75.9679 76.9313 73.9603 76.9313 71.5515C76.9313 69.1104 74.956 67.1351 72.5148 67.1351H48.4944L48.1917 66.9856C45.3039 65.56 42.3595 64.5508 37.6848 64.5508C31.1407 64.5508 25.0501 67.8193 20.3896 72.1115L37.7656 89.4529C39.2825 88.3553 41.1698 87.6937 43.2005 87.6937H72.5148C75.3563 87.6937 77.924 86.5453 79.7849 84.6844L96.3706 68.0987C98.0815 66.3879 98.0815 63.5623 96.3706 61.8514ZM79.2285 68.6552L88.0778 59.8059C90.9183 56.9653 95.5756 56.9653 98.4162 59.8059C101.257 62.6464 101.257 67.3037 98.4162 70.1443L81.8305 86.73C79.4485 89.112 76.1534 90.5865 72.5148 90.5865H43.2005C41.4391 90.5865 39.8356 91.3105 38.7076 92.4386L37.6858 93.4603L16.2754 72.0925L17.2992 71.0687C22.398 65.9699 29.61 61.6579 37.6848 61.6579C42.7194 61.6579 46.0492 62.7368 49.1663 64.2422H72.5148C75.5245 64.2422 78.1075 66.0583 79.2285 68.6552Z" fill="white"/>
<path fill-rule="evenodd" clip-rule="evenodd" d="M10.9341 71.9161C13.5046 69.3455 17.6219 69.3455 20.1925 71.9161L37.8535 89.5771C40.4376 92.1172 40.4215 96.2769 37.8582 98.8402L34.811 101.887C32.2405 104.458 28.1232 104.458 25.5526 101.887L7.88692 84.2216C5.31634 81.651 5.31634 77.5338 7.88692 74.9632L10.9341 71.9161C10.9341 71.9161 10.9341 71.9161 10.9341 71.9161ZM18.1469 73.9616C16.7061 72.5208 14.4205 72.5208 12.9796 73.9616L9.93248 77.0087C9.93248 77.0087 9.93248 77.0087 9.93248 77.0087C8.49163 78.4496 8.49163 80.7352 9.93248 82.176L27.5982 99.8418C29.039 101.283 31.3246 101.283 32.7655 99.8418L35.8126 96.7946C37.259 95.3482 37.2446 93.0318 35.8226 91.6372L35.8126 91.6274L18.1469 73.9616Z" fill="white"/>
<path fill-rule="evenodd" clip-rule="evenodd" d="M47.5003 17.3226C47.5023 23.9277 52.8325 29.2567 59.4381 29.2567C66.045 29.2567 71.376 23.9257 71.376 17.3188C71.376 10.7147 66.0092 5.38096 59.4381 5.38096C52.8752 5.38096 47.5368 10.7074 47.5003 17.3226ZM44.6074 17.3113C44.6501 9.11678 51.268 2.48811 59.4381 2.48811C67.6014 2.48811 74.2689 9.11156 74.2689 17.3188C74.2689 25.5234 67.6427 32.1495 59.4381 32.1495C51.2336 32.1495 44.6074 25.5234 44.6074 17.3188V17.3113H44.6074Z" fill="white"/>
<path fill-rule="evenodd" clip-rule="evenodd" d="M33.0742 52.149C33.0742 40.4071 44.9716 31.4169 58.8978 31.4169C72.861 31.4169 84.7599 40.4058 84.7599 52.149C84.7599 52.9479 84.1123 53.5955 83.3135 53.5955H34.5206C33.7218 53.5955 33.0742 52.9479 33.0742 52.149ZM36.0433 50.7026H81.7909C80.8485 41.7788 71.2714 34.3098 58.8978 34.3098C46.5622 34.3098 36.9855 41.7777 36.0433 50.7026Z" fill="white"/>
</svg>
