<svg width="108" height="108" viewBox="0 0 108 108" fill="none" xmlns="http://www.w3.org/2000/svg">
<path fill-rule="evenodd" clip-rule="evenodd" d="M96.6792 62.0815C94.9684 60.3707 92.1428 60.3707 90.4319 62.0815L80.1064 72.4071C79.7894 76.1528 76.6515 79.0909 72.8234 79.0909H57.5105V76.198H72.8234C75.2646 76.198 77.2398 74.2228 77.2398 71.7816C77.2398 69.3404 75.2646 67.3652 72.8234 67.3652H48.803L48.5003 67.2157C45.6125 65.7901 42.6681 64.7809 37.9934 64.7809C31.4493 64.7809 25.3587 68.0493 20.6982 72.3416L38.0742 89.683C39.591 88.5854 41.4784 87.9237 43.5091 87.9237H72.8234C75.6649 87.9237 78.2326 86.7754 80.0935 84.9145L96.6792 68.3288C98.3901 66.618 98.3901 63.7924 96.6792 62.0815ZM79.5371 68.8853L88.3863 60.036C91.2269 57.1954 95.8842 57.1954 98.7248 60.036C101.565 62.8766 101.565 67.5338 98.7248 70.3744L82.139 86.9601C79.7571 89.3421 76.4619 90.8166 72.8234 90.8166H43.5091C41.7477 90.8166 40.1442 91.5406 39.0162 92.6687L37.9944 93.6904L16.584 72.3226L17.6078 71.2988C22.7066 66.2 29.9186 61.888 37.9934 61.888C43.028 61.888 46.3578 62.9669 49.4749 64.4723H72.8234C75.8331 64.4723 78.4161 66.2884 79.5371 68.8853Z" fill="white"/>
<path fill-rule="evenodd" clip-rule="evenodd" d="M11.2427 72.1462C13.8132 69.5756 17.9305 69.5756 20.5011 72.1462L38.1621 89.8071C40.7462 92.3473 40.7301 96.507 38.1668 99.0703L35.1196 102.117C32.5491 104.688 28.4318 104.688 25.8612 102.117L8.19551 84.4517C5.62493 81.8811 5.62493 77.7639 8.19551 75.1933L11.2427 72.1462ZM18.4555 74.1917C17.0146 72.7509 14.7291 72.7509 13.2882 74.1917L10.2411 77.2389C8.80022 78.6797 8.80022 80.9653 10.2411 82.4061L27.9068 100.072C29.3476 101.513 31.6332 101.513 33.0741 100.072L36.1212 97.0247C37.5676 95.5783 37.5532 93.2619 36.1312 91.8673L36.1212 91.8575L36.1212 91.8574L18.4555 74.1917Z" fill="white"/>
<path fill-rule="evenodd" clip-rule="evenodd" d="M30.4902 7.71383C30.4902 6.91499 31.1378 6.2674 31.9367 6.2674H58.9367C59.7355 6.2674 60.3831 6.91499 60.3831 7.71383V34.7138C60.3831 35.5127 59.7355 36.1603 58.9367 36.1603H31.9367C31.1378 36.1603 30.4902 35.5127 30.4902 34.7138V7.71383ZM33.3831 9.16026V33.2674H57.4902V9.16026H33.3831Z" fill="white"/>
<path fill-rule="evenodd" clip-rule="evenodd" d="M49.7754 23.1426C49.7754 22.3438 50.423 21.6962 51.2218 21.6962H78.2218C79.0207 21.6962 79.6682 22.3438 79.6682 23.1426V50.1426C79.6682 50.9415 79.0207 51.5891 78.2218 51.5891H51.2218C50.423 51.5891 49.7754 50.9415 49.7754 50.1426V23.1426ZM52.6682 24.5891V48.6962H76.7754V24.5891H52.6682Z" fill="white"/>
</svg>
