<svg width="108" height="108" viewBox="0 0 108 108" fill="none" xmlns="http://www.w3.org/2000/svg">
<path fill-rule="evenodd" clip-rule="evenodd" d="M96.6792 63.459C94.9684 61.7482 92.1428 61.7482 90.4319 63.459L80.1064 73.7846C79.7894 77.5303 76.6516 80.4684 72.8234 80.4684H57.5492V77.5755H72.8234C75.2646 77.5755 77.2399 75.6002 77.2399 73.1591C77.2399 70.7179 75.2646 68.7427 72.8234 68.7427H48.8068L48.5068 68.5964C45.5725 67.166 42.665 66.1584 37.9934 66.1584C31.4493 66.1584 25.3587 69.4268 20.6982 73.719L38.0742 91.0605C39.5911 89.9629 41.4784 89.3012 43.5092 89.3012H72.8234C75.6649 89.3012 78.2326 88.1529 80.0935 86.292L96.6792 69.7063C98.3901 67.9955 98.3901 65.1699 96.6792 63.459ZM79.5371 70.2627L88.3864 61.4135C91.227 58.5729 95.8842 58.5729 98.7248 61.4135C101.565 64.254 101.565 68.9113 98.7248 71.7519L82.1391 88.3376C79.7571 90.7195 76.462 92.1941 72.8234 92.1941H43.5092C41.7477 92.1941 40.1442 92.9181 39.0162 94.0462L37.9945 95.0679L16.584 73.7001L17.6078 72.6763C22.7066 67.5774 29.9186 63.2655 37.9934 63.2655C43.0341 63.2655 46.3272 64.3472 49.4714 65.8498H72.8234C75.8331 65.8498 78.4162 67.6659 79.5371 70.2627Z" fill="white"/>
<path fill-rule="evenodd" clip-rule="evenodd" d="M11.2426 73.5252C13.8132 70.9546 17.9304 70.9546 20.501 73.5252L38.1767 91.2009C40.6901 93.7636 40.7042 97.9119 38.1667 100.449L35.1196 103.496C32.549 106.067 28.4318 106.067 25.8612 103.496L8.19551 85.8308C5.62493 83.2602 5.62493 79.143 8.19551 76.5724C8.19551 76.5724 8.19551 76.5724 8.19551 76.5724L11.2426 73.5252ZM13.2882 75.5708C13.2882 75.5708 13.2882 75.5708 13.2882 75.5708L10.2411 78.6179C8.80023 80.0588 8.80022 82.3444 10.2411 83.7852L27.9067 101.451C29.3476 102.892 31.6332 102.892 33.0741 101.451L36.1212 98.4038C37.5166 97.0084 37.5321 94.6801 36.1157 93.231L18.4555 75.5708C17.0146 74.1299 14.729 74.1299 13.2882 75.5708Z" fill="white"/>
<path d="M54.3485 12.8332C54.927 12.2546 55.4284 11.6375 56.007 11.136C57.897 9.40033 60.1341 8.32034 62.6798 7.89606C66.0741 7.35606 69.237 8.01176 72.0913 9.90176C74.4056 11.4446 76.1027 13.5275 77.1056 16.1503C78.1856 18.9661 78.3013 21.8203 77.4142 24.7132C76.8356 26.6032 75.9099 28.3389 74.5213 29.766C69.3527 35.0118 64.1456 40.2189 58.977 45.4646C57.7813 46.6989 56.5856 47.9332 55.3898 49.1289C54.7727 49.7846 54.3099 49.7846 53.6541 49.1289C47.3284 42.8418 40.9641 36.5546 34.677 30.2289C31.7456 27.2589 30.357 23.6332 30.8584 19.4675C31.437 14.7232 33.9056 11.2518 38.1485 9.09176C40.4628 7.89605 42.9699 7.51033 45.5542 7.85748C48.8713 8.28176 51.6484 9.74748 53.847 12.2932C54.0399 12.4475 54.1942 12.6403 54.3485 12.8332Z" stroke="white" stroke-width="3" stroke-miterlimit="10" stroke-linecap="round" stroke-linejoin="round"/>
</svg>
