<svg width="108" height="108" viewBox="0 0 108 108" fill="none" xmlns="http://www.w3.org/2000/svg">
<path fill-rule="evenodd" clip-rule="evenodd" d="M96.6792 62.0815C94.9684 60.3707 92.1428 60.3707 90.4319 62.0815L80.1064 72.4071C79.7894 76.1528 76.6516 79.0909 72.8234 79.0909H57.5491V76.198H72.8234C75.2646 76.198 77.2399 74.2228 77.2399 71.7816C77.2399 69.3405 75.2646 67.3652 72.8234 67.3652H48.8068L48.5068 67.2189C45.5725 65.7885 42.665 64.7809 37.9934 64.7809C31.4493 64.7809 25.3587 68.0493 20.6982 72.3416L38.0742 89.683C39.591 88.5854 41.4784 87.9237 43.5091 87.9237H72.8234C75.6649 87.9237 78.2326 86.7754 80.0935 84.9145L96.6792 68.3288C98.3901 66.618 98.3901 63.7924 96.6792 62.0815ZM79.5371 68.8853L88.3864 60.036C91.227 57.1954 95.8842 57.1954 98.7248 60.036C101.565 62.8766 101.565 67.5338 98.7248 70.3744L82.139 86.9601C79.7571 89.3421 76.462 90.8166 72.8234 90.8166H43.5091C41.7477 90.8166 40.1443 91.5406 39.0162 92.6687L37.9945 93.6904L16.584 72.3226L17.6078 71.2988C22.7066 66.2 29.9186 61.888 37.9934 61.888C43.0341 61.888 46.3272 62.9697 49.4714 64.4723H72.8234C75.8331 64.4723 78.4162 66.2884 79.5371 68.8853Z" fill="white"/>
<path fill-rule="evenodd" clip-rule="evenodd" d="M11.2427 72.1479C13.8133 69.5773 17.9305 69.5773 20.5011 72.1479L38.1621 89.8089C40.7462 92.349 40.7301 96.5087 38.1668 99.072L35.1196 102.119C32.549 104.69 28.4318 104.69 25.8612 102.119L8.19551 84.4534C5.62493 81.8829 5.62493 77.7656 8.19551 75.1951L11.2427 72.1479C11.2427 72.1479 11.2427 72.1479 11.2427 72.1479ZM18.4555 74.1935C17.0147 72.7526 14.7291 72.7526 13.2882 74.1935L10.2411 77.2406C10.2411 77.2406 10.2411 77.2406 10.2411 77.2406C8.80023 78.6815 8.80022 80.967 10.2411 82.4079L27.9068 100.074C29.3476 101.514 31.6332 101.514 33.0741 100.074L36.1212 97.0265C37.5676 95.5801 37.5532 93.2637 36.1312 91.869L36.1212 91.8592L18.4555 74.1935Z" fill="white"/>
<path fill-rule="evenodd" clip-rule="evenodd" d="M57.0072 16.8755C52.4805 16.8755 48.8108 20.5451 48.8108 25.0719C48.8108 29.5987 52.4805 33.2683 57.0072 33.2683C61.534 33.2683 65.2037 29.5987 65.2037 25.0719C65.2037 20.5451 61.534 16.8755 57.0072 16.8755ZM45.918 25.0719C45.918 18.9474 50.8828 13.9826 57.0072 13.9826C63.1317 13.9826 68.0965 18.9474 68.0965 25.0719C68.0965 31.1963 63.1317 36.1612 57.0072 36.1612C50.8828 36.1612 45.918 31.1963 45.918 25.0719Z" fill="white"/>
<path fill-rule="evenodd" clip-rule="evenodd" d="M57.0084 5.30426C46.0909 5.30426 37.2405 14.1546 37.2405 25.0721C37.2405 35.9896 46.0909 44.84 57.0084 44.84C67.9259 44.84 76.7762 35.9896 76.7762 25.0721C76.7762 14.1546 67.9259 5.30426 57.0084 5.30426ZM34.3477 25.0721C34.3477 12.557 44.4932 2.41141 57.0084 2.41141C69.5235 2.41141 79.6691 12.557 79.6691 25.0721C79.6691 37.5873 69.5235 47.7328 57.0084 47.7328C44.4932 47.7328 34.3477 37.5873 34.3477 25.0721Z" fill="white"/>
</svg>
