<svg width="33" height="34" viewBox="0 0 33 34" fill="none" xmlns="http://www.w3.org/2000/svg">
<path fill-rule="evenodd" clip-rule="evenodd" d="M2 0C0.895431 0 0 0.895433 0 2V31.2308C0 32.3353 0.89543 33.2308 2 33.2308H30.1923C31.2969 33.2308 32.1923 32.3353 32.1923 31.2308V2C32.1923 0.895431 31.2969 0 30.1923 0H2ZM15.3316 10.4202C13.1209 10.687 11.4365 12.5161 11.4233 14.6627V14.9675V14.9676C11.4233 15.0057 11.4233 15.0565 11.4365 15.0946C11.5681 15.9329 11.9365 16.695 12.3313 17.4444C13.3183 19.2862 14.5421 21.001 15.8185 22.6649C15.9106 22.7919 15.9501 22.7538 16.0291 22.6522C16.5423 21.979 17.0423 21.3058 17.516 20.6199C18.4109 19.337 19.2662 18.0287 19.911 16.6061C20.1742 16.0218 20.4111 15.4248 20.4242 14.777C20.4769 12.135 18.0687 10.0773 15.3316 10.4202ZM13.7525 14.7135C13.7657 13.5576 14.7395 12.6177 15.9369 12.6304C17.1607 12.6431 18.1214 13.583 18.1214 14.7516C18.1082 15.9075 17.1213 16.8347 15.9238 16.8347C14.7131 16.8347 13.7394 15.8821 13.7525 14.7135Z" fill="white"/>
</svg>
