<svg width="33" height="34" viewBox="0 0 33 34" fill="none" xmlns="http://www.w3.org/2000/svg">
<path fill-rule="evenodd" clip-rule="evenodd" d="M2 0C0.895431 0 0 0.895433 0 2V31.2308C0 32.3353 0.89543 33.2308 2 33.2308H30.1923C31.2969 33.2308 32.1923 32.3353 32.1923 31.2308V2C32.1923 0.895431 31.2969 0 30.1923 0H2ZM12.5635 10.3838H11.3333C10.9391 10.3838 10.5448 10.3838 10.1505 10.399C9.64584 10.399 9.34619 10.673 9.34619 11.1601C9.34619 12.043 9.45659 12.9107 9.66161 13.7631C10.9233 19.0908 15.8596 22.8963 21.5214 22.9268C22.026 22.9268 22.3257 22.6528 22.3257 22.1504V19.8824C22.3257 19.3648 22.0576 19.106 21.5371 19.0908C20.7013 19.0756 19.897 18.9538 19.1084 18.7103C18.7615 18.6037 18.4776 18.6798 18.2252 18.9234L16.8059 20.2934C16.7428 20.3542 16.6955 20.3847 16.6008 20.339C14.5979 19.3191 13.0839 17.8426 12.0115 15.9246C11.9642 15.8333 11.9799 15.7876 12.0588 15.7115C12.2223 15.5537 12.3841 15.3958 12.5453 15.2385C12.866 14.9256 13.1844 14.615 13.5097 14.3111C13.7463 14.0828 13.8094 13.8392 13.7147 13.5348C13.4466 12.7432 13.3205 11.9212 13.3047 11.084C13.3047 10.6578 13.0051 10.3838 12.5635 10.3838Z" fill="white"/>
</svg>
