<svg width="209" height="48" viewBox="0 0 209 48" fill="none" xmlns="http://www.w3.org/2000/svg">
<path d="M104.631 30.1842C104.172 30.1842 103.807 29.821 103.807 29.3956C103.807 28.9494 104.162 28.5863 104.631 28.5863C105.049 28.5863 105.414 28.9494 105.414 29.3956C105.404 29.821 105.049 30.1842 104.631 30.1842Z" fill="#5A5A5C"/>
<path d="M66.0745 31.4189C65.0514 31.4189 64.1327 31.6679 63.4436 32.0415L63.8612 32.9546C64.5085 32.5811 65.1767 32.3631 66.0014 32.3631C67.1498 32.3631 67.7136 32.9339 67.7136 34.0856V35.0091C67.2542 34.7601 66.5443 34.5629 65.7509 34.5629C64.1953 34.5629 62.7441 35.31 62.7441 37.0636C62.7441 38.952 64.0282 39.5642 65.2602 39.5642C66.3877 39.5642 67.1603 39.0454 67.7136 38.4436V39.3982H68.8307V33.9507C68.8307 32.1349 67.7658 31.4189 66.0745 31.4189ZM67.7032 37.4786C67.2229 38.1323 66.4608 38.6511 65.4377 38.6511C64.4772 38.6511 63.8299 38.1427 63.8299 36.9805C63.8299 35.9948 64.5189 35.4449 65.6673 35.4449C66.6278 35.4449 67.1812 35.6109 67.6927 35.8911V37.4786H67.7032Z" fill="#5A5A5C"/>
<path d="M74.5323 34.8534C73.2065 34.262 72.7993 33.9922 72.7993 33.3385C72.7993 32.7782 73.2795 32.3735 74.1043 32.3735C74.9395 32.3735 75.4511 32.6018 76.067 33.0687L76.6935 32.249C76.0984 31.7613 75.2527 31.4189 74.1774 31.4189C72.7575 31.4189 71.724 32.2179 71.724 33.4111C71.724 34.6667 72.3817 35.1336 73.9582 35.808C75.3467 36.3995 75.8165 36.7627 75.8165 37.3956C75.8165 38.1531 75.3049 38.5992 74.2296 38.5992C73.4466 38.5992 72.7158 38.2879 72.0894 37.738L71.4316 38.5577C72.1833 39.1595 73.123 39.5538 74.1983 39.5538C75.5555 39.5538 76.8918 38.8794 76.8918 37.3541C76.8918 35.9533 76.0253 35.5279 74.5323 34.8534Z" fill="#5A5A5C"/>
<path d="M82.132 34.8534C80.7956 34.262 80.3989 33.9922 80.3989 33.3385C80.3989 32.7782 80.8791 32.3735 81.7039 32.3735C82.5391 32.3735 83.0507 32.6018 83.6667 33.0687L84.2931 32.249C83.6875 31.7613 82.8523 31.4189 81.777 31.4189C80.3571 31.4189 79.3236 32.2179 79.3236 33.4111C79.3236 34.6667 79.9813 35.1336 81.5578 35.808C82.9463 36.3995 83.4161 36.7627 83.4161 37.3956C83.4161 38.1531 82.9046 38.5992 81.8292 38.5992C81.0567 38.5992 80.3154 38.2879 79.689 37.738L79.0312 38.5577C79.7829 39.1595 80.7226 39.5538 81.7979 39.5538C83.1551 39.5538 84.4914 38.8794 84.4914 37.3541C84.481 35.9533 83.6145 35.5279 82.132 34.8534Z" fill="#5A5A5C"/>
<path d="M90.2343 31.4189C88.3133 31.4189 86.7891 32.8508 86.7891 35.4968C86.7891 38.1427 88.2611 39.5538 90.1716 39.5538C92.0926 39.5538 93.6169 38.0804 93.6169 35.4345C93.6169 32.7886 92.1448 31.4189 90.2343 31.4189ZM90.203 38.5888C88.8457 38.5888 87.927 37.5201 87.927 35.4656C87.927 33.4111 88.8353 32.3839 90.203 32.3839C91.5706 32.3839 92.4998 33.4111 92.4998 35.4656C92.4893 37.5201 91.5602 38.5888 90.203 38.5888Z" fill="#5A5A5C"/>
<path d="M99.0237 32.3839C99.8171 32.3839 100.339 32.6641 100.913 33.1725L101.592 32.3424C100.976 31.8029 100.172 31.4189 99.1072 31.4189C97.4577 31.4189 95.7246 32.6434 95.7246 35.5279C95.7246 38.2465 97.3115 39.5642 99.0341 39.5642C100.141 39.5642 100.903 39.1492 101.571 38.4747L100.892 37.7587C100.35 38.2776 99.8484 38.5888 99.0759 38.5888C97.6873 38.5888 96.8626 37.3541 96.8626 35.4345C96.8521 33.4838 97.7917 32.3839 99.0237 32.3839Z" fill="#5A5A5C"/>
<path d="M105.184 31.585H104.066V39.3982H105.184V31.585Z" fill="#5A5A5C"/>
<path d="M111.073 31.4189C110.049 31.4189 109.131 31.6679 108.442 32.0415L108.859 32.9546C109.507 32.5811 110.175 32.3631 111 32.3631C112.148 32.3631 112.712 32.9339 112.712 34.0856V35.0091C112.242 34.7601 111.542 34.5629 110.749 34.5629C109.193 34.5629 107.742 35.31 107.742 37.0636C107.742 38.952 109.026 39.5642 110.258 39.5642C111.386 39.5642 112.158 39.0454 112.712 38.4436V39.3982H113.829V33.9507C113.829 32.1349 112.774 31.4189 111.073 31.4189ZM112.712 37.4786C112.231 38.1323 111.469 38.6511 110.446 38.6511C109.486 38.6511 108.849 38.1427 108.849 36.9805C108.849 35.9948 109.538 35.4449 110.686 35.4449C111.647 35.4449 112.2 35.6109 112.712 35.8911V37.4786Z" fill="#5A5A5C"/>
<path d="M118.464 28.5448L117.336 29.1674V31.5746H116.365V32.5085H117.336V37.7796C117.336 39.0766 117.858 39.5539 118.829 39.5539C119.424 39.5539 119.852 39.4605 120.28 39.2841L120.353 38.3191C119.998 38.4644 119.696 38.5474 119.247 38.5474C118.641 38.5474 118.453 38.3087 118.453 37.6135V32.5189H120.395V31.585H118.453V28.5448H118.464Z" fill="#5A5A5C"/>
<path d="M125.876 31.4189C124.007 31.4189 122.629 32.965 122.629 35.4553C122.629 38.5266 124.383 39.5642 125.813 39.5642C126.993 39.5642 127.682 39.2529 128.632 38.6511L128.11 37.8522C127.39 38.3295 126.857 38.5992 125.938 38.5992C124.654 38.5992 123.861 37.5409 123.756 35.8807H128.997C129.029 35.7043 129.039 35.5383 129.039 35.2685C129.029 33.0273 127.922 31.4189 125.876 31.4189ZM123.746 34.9572C123.882 33.214 124.686 32.3839 125.855 32.3839C127.233 32.3839 127.891 33.4423 127.985 34.9572H123.746Z" fill="#5A5A5C"/>
<path d="M134.239 34.8534C132.903 34.262 132.506 33.9922 132.506 33.3385C132.506 32.7782 132.987 32.3735 133.811 32.3735C134.647 32.3735 135.158 32.6018 135.774 33.0687L136.4 32.249C135.805 31.7613 134.96 31.4189 133.884 31.4189C132.465 31.4189 131.431 32.2179 131.431 33.4111C131.431 34.6667 132.089 35.1336 133.665 35.808C135.054 36.3995 135.524 36.7627 135.524 37.3956C135.524 38.1531 135.012 38.5992 133.937 38.5992C133.154 38.5992 132.423 38.2879 131.796 37.738L131.139 38.5577C131.89 39.1595 132.83 39.5538 133.905 39.5538C135.262 39.5538 136.599 38.8794 136.599 37.3541C136.599 35.9533 135.722 35.5279 134.239 34.8534Z" fill="#5A5A5C"/>
<path d="M68.54 10.7081C67.235 10.7081 66.191 11.3203 65.2932 12.1504V10.9675H62.8711V27.891L65.2932 26.6355V22.1841C65.9822 22.9416 67.1724 23.5953 68.4252 23.5953C71.0143 23.5953 73.332 21.5927 73.332 17.3489C73.332 12.6381 71.2127 10.7081 68.54 10.7081ZM68.1851 21.3541C66.9532 21.3541 65.8152 20.4617 65.2723 19.725V14.5162C65.9091 13.7173 66.9323 12.939 68.0911 12.939C69.8973 12.939 70.8891 14.3087 70.8891 17.4111C70.8891 20.0363 69.939 21.3541 68.1851 21.3541Z" fill="black"/>
<path d="M83.1453 10.7082C81.8612 10.7082 80.6293 11.2478 80.0133 12.1505V6.16345L77.5703 7.43976V23.3463H80.0133V16.1142C80.0133 14.1116 80.9425 12.9599 82.5711 12.9599C84.1893 12.9599 85.1289 13.8522 85.1289 16.3528V23.3567H87.5719V16.2595C87.5824 12.5863 86.0372 10.7082 83.1453 10.7082Z" fill="black"/>
<path d="M97.134 10.7081C95.38 10.7081 94.0542 11.0817 92.864 11.8184L93.814 13.655C94.785 13.1154 95.7768 12.8768 97.0609 12.8768C98.5747 12.8768 99.4099 13.6342 99.4099 14.9727V15.8962C98.7209 15.5953 97.8022 15.4293 96.6329 15.4293C93.814 15.4293 91.6738 16.6744 91.6738 19.4345C91.6738 22.4747 93.9706 23.6057 95.996 23.6057C97.3428 23.6057 98.5538 22.9727 99.4099 22.1219V23.3463H101.811V14.8586C101.801 12.0467 99.911 10.7081 97.134 10.7081ZM99.4099 19.8288C98.8462 20.607 97.7082 21.4059 96.4032 21.4059C94.7954 21.4059 94.0124 20.5862 94.0124 19.3619C94.0124 18.2309 95.0042 17.5253 96.5702 17.5253C97.8961 17.5253 98.7522 17.7432 99.4204 18.0648V19.8288H99.4099Z" fill="black"/>
<path d="M108.943 12.1401V10.9572H106.5V23.3256H108.943V16.2594C108.943 14.1634 109.841 13.0739 111.386 13.0739C112.19 13.0739 112.733 13.2399 113.255 13.5201L113.892 11.2166C113.39 10.8845 112.775 10.6978 111.783 10.6978C110.551 10.7081 109.507 11.3203 108.943 12.1401Z" fill="black"/>
<path d="M130.229 10.7081C128.287 10.7081 127.316 11.4137 126.408 12.524C125.74 11.3411 124.675 10.7081 122.994 10.7081C121.71 10.7081 120.645 11.2477 120.029 12.1504V10.9675H117.586V23.3359H120.029V16.1037C120.029 14.1011 120.791 12.9494 122.42 12.9494C124.038 12.9494 124.81 13.8417 124.81 16.3424V23.3463H127.253V16.1141C127.253 14.1115 128.016 12.9598 129.644 12.9598C131.252 12.9598 132.035 13.8521 132.035 16.3527V23.3566H134.478V16.2594C134.499 12.5862 133.121 10.7081 130.229 10.7081Z" fill="black"/>
<path d="M144.052 10.7081C142.298 10.7081 140.972 11.0817 139.782 11.8184L140.732 13.655C141.703 13.1154 142.705 12.8768 143.979 12.8768C145.493 12.8768 146.328 13.6342 146.328 14.9727V15.8962C145.639 15.5953 144.72 15.4293 143.551 15.4293C140.732 15.4293 138.592 16.6744 138.592 19.4345C138.592 22.4747 140.889 23.6057 142.904 23.6057C144.261 23.6057 145.461 22.9727 146.317 22.1219V23.3463H148.708V14.8586C148.729 12.0467 146.829 10.7081 144.052 10.7081ZM146.328 19.8288C145.754 20.607 144.616 21.4059 143.321 21.4059C141.703 21.4059 140.93 20.5862 140.93 19.3619C140.93 18.2309 141.922 17.5253 143.488 17.5253C144.814 17.5253 145.67 17.7432 146.338 18.0648V19.8288H146.328Z" fill="black"/>
<path d="M156.58 6.15308L154.179 7.42938V10.9676H152.404V13.1881H154.179V20.3269C154.179 22.537 155.244 23.6057 156.977 23.6057C157.948 23.6057 158.783 23.3671 159.368 23.0351L159.65 20.8872C159.201 21.1466 158.491 21.3853 157.844 21.3853C156.946 21.3853 156.559 21.0532 156.559 19.9015V13.1881H159.66V10.9676H156.58V6.15308Z" fill="black"/>
<path d="M168.075 10.7081C164.849 10.7081 162.615 12.9702 162.615 17.1621C162.615 21.2607 165.079 23.5953 168.002 23.5953C169.902 23.5953 171.197 23.0039 172.293 21.9663L170.842 20.4099C170.007 21.022 169.182 21.3955 168.138 21.3955C166.624 21.3955 165.267 20.3787 165.006 18.0026H173.233C173.254 17.7432 173.306 17.3385 173.306 16.8923C173.316 13.5616 171.604 10.7081 168.075 10.7081ZM165.069 16.0103C165.288 14.0285 166.28 12.8975 167.919 12.8975C169.934 12.8975 170.738 14.3086 170.863 16.0103H165.069Z" fill="black"/>
<path d="M181.856 13.0117C182.974 13.0117 183.871 13.4786 184.894 14.5162L186.346 12.7938C185.187 11.4241 183.767 10.6978 181.94 10.6978C178.902 10.6978 176.49 13.0739 176.49 17.1828C176.49 21.0428 178.839 23.5953 181.877 23.5953C184.132 23.5953 185.364 22.5162 186.335 21.2814L184.769 19.7458C183.798 20.7626 183.109 21.2814 181.95 21.2814C180.009 21.2814 178.965 19.5383 178.965 17.1103C178.933 14.5992 180.071 13.0117 181.856 13.0117Z" fill="black"/>
<path d="M195.72 10.7082C194.435 10.7082 193.203 11.2478 192.587 12.1505V6.16345L190.145 7.43976V23.3463H192.587V16.1142C192.587 14.1116 193.517 12.9599 195.145 12.9599C196.753 12.9599 197.703 13.8522 197.703 16.3528V23.3567H200.146V16.2595C200.157 12.5863 198.611 10.7082 195.72 10.7082Z" fill="black"/>
<path d="M203.602 7.59536V9.5046C203.602 9.764 203.675 9.85735 203.894 9.85735C204.061 9.85735 204.176 9.82627 204.312 9.77439L204.281 10.1375C204.114 10.1998 203.957 10.2413 203.738 10.2413C203.372 10.2413 203.174 10.0649 203.174 9.57724V7.59536H202.809V7.24261H203.174V6.33989L203.592 6.1012V7.24261H204.322V7.59536H203.602Z" fill="#5A5A5C"/>
<path d="M208.573 10.179V8.46698C208.573 7.79253 208.364 7.55388 207.936 7.55388C207.539 7.55388 207.278 7.82366 207.278 8.46698V10.179H206.861V8.46698C206.861 7.79253 206.631 7.55388 206.224 7.55388C205.817 7.55388 205.566 7.82366 205.566 8.46698V10.179H205.148V7.25299H205.566V7.60574C205.723 7.35672 205.963 7.19067 206.318 7.19067C206.735 7.19067 206.986 7.41899 207.122 7.68877C207.299 7.40862 207.539 7.19067 208.019 7.19067C208.615 7.19067 209.001 7.5435 209.001 8.39434V10.179H208.573Z" fill="#5A5A5C"/>
<path d="M37.6267 12.3476C37.136 12.2231 36.6453 12.1401 36.1338 12.0778C36.0711 11.5694 35.9876 11.0817 35.8624 10.594C34.5678 5.35407 29.8071 1.44226 24.1381 1.44226C18.4692 1.44226 13.7085 5.34369 12.4139 10.594C12.2991 11.0817 12.2051 11.5694 12.1425 12.0778C11.6309 12.1401 11.1402 12.2231 10.6495 12.3476C5.37729 13.6342 1.44141 18.3657 1.44141 24C1.44141 29.6342 5.36685 34.3658 10.6495 35.6524C11.1402 35.7665 11.6309 35.8599 12.1425 35.9118C12.2051 36.4202 12.2886 36.9079 12.4139 37.3956C13.7085 42.6355 18.4692 46.5473 24.1381 46.5473C29.8071 46.5473 34.5678 42.6459 35.8624 37.3956C35.9772 36.9079 36.0711 36.4202 36.1338 35.9118C36.6453 35.8599 37.136 35.7665 37.6267 35.6524C42.8989 34.3658 46.8349 29.6342 46.8349 24C46.8349 18.3657 42.9094 13.6342 37.6267 12.3476Z" fill="white"/>
<path d="M37.4172 10.812C36.1749 4.65893 30.7043 0 24.1479 0C17.5915 0 12.1105 4.65893 10.8785 10.812C4.68758 12.0364 0 17.4838 0 24C0 30.5162 4.68758 35.9637 10.8785 37.1881C12.1209 43.3411 17.602 48 24.1479 48C30.7043 48 36.1853 43.3515 37.4172 37.1881C43.6082 35.9533 48.2958 30.5162 48.2958 24C48.2958 17.4838 43.6082 12.0467 37.4172 10.812ZM37.626 35.6628C37.1353 35.7769 36.6447 35.8703 36.1331 35.9326C36.0705 36.441 35.987 36.9287 35.8617 37.4163C34.5671 42.6563 29.8064 46.5681 24.1375 46.5681C18.4685 46.5681 13.7078 42.6667 12.4132 37.4163C12.2984 36.9287 12.2045 36.441 12.1418 35.9326C11.6303 35.8807 11.1395 35.7873 10.6489 35.6628C5.37662 34.3761 1.44074 29.6446 1.44074 24.0104C1.44074 18.3761 5.36618 13.6343 10.6489 12.358C11.1395 12.2335 11.6303 12.1505 12.1418 12.0882C12.2045 11.5902 12.288 11.0921 12.4132 10.6044C13.7078 5.36449 18.4685 1.45268 24.1375 1.45268C29.8064 1.45268 34.5671 5.35412 35.8617 10.6044C35.9765 11.0921 36.0705 11.5798 36.1331 12.0882C36.6447 12.1505 37.1353 12.2335 37.626 12.358C42.8983 13.6447 46.8342 18.3761 46.8342 24.0104C46.8342 29.6343 42.9087 34.3761 37.626 35.6628Z" fill="#215B6C"/>
<path d="M24.1367 24.1557C24.1472 24.5915 24.1785 25.0273 24.2411 25.4527C24.3142 25.9507 24.4081 26.4281 24.5439 26.895C24.6483 27.2581 24.7736 27.6213 24.9197 27.9741C25.1598 28.5655 25.4626 29.1362 25.7967 29.6654C27.6759 32.6018 30.9854 34.5526 34.7543 34.5526C34.7543 30.8068 32.7915 27.5279 29.837 25.6498C29.2941 25.3074 28.7303 25.0169 28.1353 24.7782C27.7803 24.6329 27.4254 24.5084 27.0495 24.4047C26.5797 24.2698 26.089 24.1661 25.5983 24.1038C25.1703 24.0415 24.7318 24.0104 24.2933 24H24.1367V24.1557Z" fill="#33817D"/>
<path d="M25.0249 31.0973C24.7013 30.6615 24.4089 30.205 24.1479 29.7277C23.8869 30.205 23.5946 30.6615 23.2709 31.0973C21.089 34.0441 17.5916 35.9741 13.6348 36.0052C13.7078 36.4929 13.8018 36.9806 13.9375 37.4475C15.2008 41.8677 19.2933 45.1051 24.1479 45.1051C29.0026 45.1051 33.0846 41.8677 34.3583 37.4475C34.4941 36.9806 34.5984 36.4929 34.6611 36.0052C30.7043 35.9637 27.2069 34.0441 25.0249 31.0973Z" fill="#33817D"/>
<path d="M17.0075 24.8717C17.446 24.55 17.9054 24.2594 18.396 24C17.9158 23.7406 17.4564 23.4501 17.0179 23.1285C14.053 20.9599 12.1111 17.4838 12.0798 13.5616C11.5787 13.6343 11.0984 13.7277 10.6286 13.8626C6.18114 15.1181 2.92383 19.1855 2.92383 24.0104C2.92383 28.8353 6.18114 32.8924 10.6286 34.1583C11.0984 34.2932 11.5891 34.3969 12.0798 34.4592C12.1007 30.5266 14.0425 27.0403 17.0075 24.8717Z" fill="#DD6735"/>
<path d="M22.6872 24.1038C22.1965 24.1661 21.7058 24.2698 21.236 24.4047C20.8706 24.5084 20.5052 24.6329 20.1503 24.7782C19.5552 25.0169 18.981 25.3178 18.4485 25.6498C15.494 27.5175 13.5312 30.8068 13.5312 34.5526C17.3001 34.5526 20.5992 32.6018 22.4888 29.6654C22.8333 29.1362 23.1257 28.5655 23.3658 27.9741C23.512 27.6213 23.6372 27.2685 23.7416 26.895C23.8774 26.4281 23.9818 25.9404 24.0444 25.4527C24.1071 25.0273 24.1384 24.5915 24.1488 24.1557V24H24.0131C23.5537 24.0104 23.1152 24.0415 22.6872 24.1038Z" fill="#DD6735"/>
<path d="M37.6678 13.8522C37.198 13.7173 36.7073 13.6135 36.2167 13.5513C36.1853 17.4734 34.2435 20.9599 31.2785 23.1285C30.84 23.4501 30.3806 23.7406 29.9004 24C30.3806 24.2594 30.84 24.5604 31.2785 24.8717C34.2435 27.0403 36.1853 30.5163 36.2167 34.4488C36.7178 34.3762 37.198 34.2828 37.6678 34.1479C42.1153 32.8924 45.3726 28.8249 45.3726 24C45.3726 19.1751 42.1153 15.1181 37.6678 13.8522Z" fill="#4BB4A2"/>
<path d="M24.2933 24C24.7318 24 25.1703 23.9585 25.5983 23.8963C26.0994 23.8236 26.5797 23.7303 27.0495 23.5954C27.4149 23.4916 27.7699 23.3671 28.1248 23.2322C28.7199 22.9935 29.2941 22.6927 29.837 22.3502C32.7915 20.4825 34.7543 17.1933 34.7543 13.4475C30.9854 13.4475 27.6863 15.3982 25.7967 18.3347C25.4522 18.8639 25.1598 19.4346 24.9197 20.026C24.7736 20.3788 24.6483 20.7316 24.5439 21.1051C24.4081 21.572 24.3038 22.0597 24.2411 22.5474C24.1785 22.9728 24.1472 23.419 24.1367 23.8548V23.9896H24.2933V24Z" fill="#4BB4A2"/>
<path d="M23.2612 16.9132C23.5849 17.349 23.8772 17.8055 24.1382 18.2828C24.3992 17.8055 24.6915 17.349 25.0151 16.9132C27.1971 13.9664 30.6945 12.0363 34.6513 12.0052C34.5783 11.5072 34.4843 11.0298 34.3486 10.5629C33.0853 6.14269 28.9928 2.9054 24.1382 2.9054C19.2835 2.9054 15.191 6.14269 13.9278 10.5629C13.7921 11.0298 13.6876 11.5175 13.625 12.0052C17.5818 12.0363 21.0792 13.956 23.2612 16.9132Z" fill="#8CBC4C"/>
<path d="M24.1371 23.8651C24.1267 23.4189 24.0953 22.9832 24.0327 22.5474C23.9596 22.0597 23.8657 21.572 23.7299 21.1051C23.6255 20.7419 23.5003 20.3788 23.3541 20.026C23.114 19.4346 22.8217 18.8639 22.4771 18.3347C20.5979 15.3982 17.2884 13.4475 13.5195 13.4475C13.5195 17.1933 15.4823 20.4722 18.4368 22.3502C18.9797 22.6927 19.5435 22.9832 20.149 23.2322C20.4935 23.3775 20.8589 23.4916 21.2243 23.5954C21.6941 23.7303 22.1848 23.834 22.6755 23.8963C23.1035 23.9585 23.542 23.9896 23.9909 24H24.1371V23.8651Z" fill="#8CBC4C"/>
<path d="M141.327 27.891H140.533V43.31H141.327V27.891Z" fill="#5A5A5C"/>
<path d="M144.646 36.607C144.646 35.6628 145.45 35.2996 146.787 35.2996H147.173V35.2062C147.173 34.8223 147.079 34.5732 146.641 34.5732C146.265 34.5732 146.129 34.7912 146.098 35.0506H144.803C144.866 34.0856 145.628 33.6083 146.735 33.6083C147.841 33.6083 148.551 34.0648 148.551 35.1232V37.7173H147.204V37.2503C147.016 37.5408 146.661 37.8106 146.014 37.8106C145.294 37.8106 144.646 37.4578 144.646 36.607ZM147.183 36.3164V36.0674H146.818C146.265 36.0674 146.014 36.1712 146.014 36.5032C146.014 36.7315 146.171 36.8768 146.494 36.8768C146.891 36.8768 147.183 36.6588 147.183 36.3164Z" fill="#DD6735"/>
<path d="M150.795 35.4968V32.2386H152.371V35.4241C152.371 36.2023 152.559 36.5759 153.238 36.5759C153.896 36.5759 154.104 36.2231 154.104 35.4034V32.2386H155.702V35.476C155.702 37.0739 154.762 37.8106 153.238 37.8106C151.682 37.8106 150.795 37.0221 150.795 35.4968Z" fill="#DD6735"/>
<path d="M156.443 35.9741H157.947C157.988 36.3684 158.166 36.6901 158.813 36.6901C159.273 36.6901 159.523 36.4721 159.523 36.1505C159.523 35.8081 159.314 35.725 158.657 35.6213C157.101 35.4345 156.579 34.978 156.579 33.8781C156.579 32.8924 157.393 32.166 158.719 32.166C160.045 32.166 160.797 32.716 160.891 33.8781H159.429C159.377 33.4838 159.147 33.2867 158.719 33.2867C158.291 33.2867 158.082 33.4734 158.082 33.7536C158.082 34.0545 158.249 34.1998 158.939 34.2932C160.337 34.4488 161.047 34.8119 161.047 35.9948C161.047 37.0013 160.244 37.821 158.824 37.821C157.279 37.8106 156.496 37.1674 156.443 35.9741Z" fill="#DD6735"/>
<path d="M161.883 32.2386H163.981C165.495 32.2386 166.195 32.9027 166.195 34.0649V34.096C166.195 35.2478 165.412 35.8703 164.054 35.8703H163.459V37.7173H161.883V32.2386ZM163.919 34.7912C164.43 34.7912 164.702 34.5526 164.702 34.096V34.0649C164.702 33.5979 164.42 33.4112 163.929 33.4112H163.47V34.7912H163.919Z" fill="#DD6735"/>
<path d="M167.949 35.7665V35.7043C167.949 34.3658 168.91 33.6083 170.1 33.6083C171.092 33.6083 172 34.0337 172.073 35.2581H170.779C170.716 34.8846 170.528 34.677 170.131 34.677C169.641 34.677 169.359 35.0194 169.359 35.6939V35.7561C169.359 36.4513 169.63 36.8145 170.152 36.8145C170.538 36.8145 170.81 36.5862 170.852 36.1504H172.094C172.052 37.1673 171.374 37.821 170.069 37.821C168.868 37.8106 167.949 37.1154 167.949 35.7665Z" fill="#DD6735"/>
<path d="M172.5 35.7665V35.7043C172.5 34.4176 173.46 33.6083 174.713 33.6083C175.956 33.6083 176.906 34.3969 176.906 35.6731V35.7354C176.906 37.0428 175.945 37.821 174.703 37.821C173.46 37.8106 172.5 37.0532 172.5 35.7665ZM175.507 35.7354V35.6731C175.507 34.9987 175.235 34.6251 174.713 34.6251C174.191 34.6251 173.909 34.9883 173.909 35.6627V35.725C173.909 36.4202 174.181 36.7938 174.713 36.7938C175.235 36.7834 175.507 36.4098 175.507 35.7354Z" fill="#DD6735"/>
<path d="M177.564 33.7121H178.942V34.3242C179.162 33.9403 179.579 33.6083 180.206 33.6083C180.738 33.6083 181.104 33.8366 181.302 34.2724C181.646 33.8054 182.127 33.6083 182.638 33.6083C183.4 33.6083 183.954 34.096 183.954 35.1024V37.7276H182.576V35.3411C182.576 34.9364 182.377 34.7393 182.054 34.7393C181.688 34.7393 181.438 34.9779 181.438 35.4137V37.738H180.07V35.3515C180.07 34.9468 179.872 34.7497 179.558 34.7497C179.193 34.7497 178.942 34.9883 178.942 35.4241V37.7483H177.564V33.7121Z" fill="#DD6735"/>
<path d="M184.809 33.7121H186.187V34.3138C186.417 33.9299 186.835 33.6083 187.44 33.6083C188.38 33.6083 189.142 34.3139 189.142 35.6835V35.7458C189.142 37.1258 188.38 37.8106 187.43 37.8106C186.824 37.8106 186.386 37.5305 186.177 37.1258V39.0557H184.799V33.7121H184.809ZM187.743 35.7354V35.6731C187.743 34.9675 187.44 34.6355 186.949 34.6355C186.448 34.6355 186.146 34.9987 186.146 35.6731V35.7354C186.146 36.4202 186.448 36.7626 186.949 36.7626C187.461 36.7626 187.743 36.3994 187.743 35.7354Z" fill="#DD6735"/>
<path d="M189.58 36.607C189.58 35.6628 190.384 35.2996 191.72 35.2996H192.107V35.2062C192.107 34.8223 192.013 34.5732 191.574 34.5732C191.198 34.5732 191.052 34.7912 191.031 35.0506H189.737C189.799 34.0856 190.561 33.6083 191.668 33.6083C192.775 33.6083 193.485 34.0648 193.485 35.1232V37.7173H192.138V37.2503C191.95 37.5408 191.595 37.8106 190.948 37.8106C190.217 37.8106 189.58 37.4578 189.58 36.607ZM192.107 36.3164V36.0674H191.741C191.188 36.0674 190.937 36.1712 190.937 36.5032C190.937 36.7315 191.094 36.8768 191.418 36.8768C191.814 36.8768 192.107 36.6588 192.107 36.3164Z" fill="#DD6735"/>
<path d="M194.33 33.7121H195.708V34.3554C195.927 33.9403 196.366 33.6083 197.034 33.6083C197.817 33.6083 198.349 34.096 198.349 35.1232V37.7276H196.971V35.393C196.971 34.9365 196.794 34.7185 196.397 34.7185C195.99 34.7185 195.708 34.9675 195.708 35.476V37.7172H194.33V33.7121Z" fill="#DD6735"/>
<path d="M200.282 37.3126L198.674 33.7122H200.167L201.002 35.8496L201.775 33.7122H203.09L200.929 39.0662H199.613L200.282 37.3126Z" fill="#DD6735"/>
</svg>
